<svg width="30" height="30" viewBox="0 0 30 30" fill="none" xmlns="http://www.w3.org/2000/svg">
<g clip-path="url(#clip0)">
<path d="M28.4999 13.5H16.5001V1.49991C16.5001 0.672089 15.828 0 14.9999 0C14.1721 0 13.5 0.672089 13.5 1.49991V13.5H1.49991C0.672089 13.5 0 14.1721 0 14.9999C0 15.828 0.672089 16.5001 1.49991 16.5001H13.5V28.4999C13.5 29.328 14.1721 30.0001 14.9999 30.0001C15.828 30.0001 16.5001 29.328 16.5001 28.4999V16.5001H28.4999C29.328 16.5001 30.0001 15.828 30.0001 14.9999C30.0001 14.1721 29.328 13.5 28.4999 13.5V13.5Z" fill="black"/>
</g>
<defs>
<clipPath id="clip0">
<rect width="30" height="30" fill="white"/>
</clipPath>
</defs>
</svg>
