<svg width="30" height="30" viewBox="0 0 30 30" fill="none" xmlns="http://www.w3.org/2000/svg">
<g clip-path="url(#clip0)">
<path d="M5.86956 2.60872H3.26085C1.46348 2.60872 0 4.0722 0 5.86957V8.47828C0 10.2756 1.46348 11.7391 3.26085 11.7391H5.86956C7.66693 11.7391 9.13041 10.2756 9.13041 8.47828V5.86957C9.13041 4.0722 7.66693 2.60872 5.86956 2.60872ZM7.82608 8.47828C7.82608 9.557 6.94828 10.4348 5.86956 10.4348H3.26085C2.18213 10.4348 1.30433 9.557 1.30433 8.47828V5.86957C1.30433 4.79085 2.18213 3.91305 3.26085 3.91305H5.86956C6.94828 3.91305 7.82608 4.79085 7.82608 5.86957V8.47828Z" fill="white"/>
<path d="M26.7391 18.2609H24.1304C22.333 18.2609 20.8695 19.7244 20.8695 21.5217V24.1304C20.8695 25.9278 22.333 27.3913 24.1304 27.3913H26.7391C28.5364 27.3913 29.9999 25.9278 29.9999 24.1304V21.5217C30 19.7244 28.5365 18.2609 26.7391 18.2609ZM28.6956 24.1304C28.6956 25.2092 27.8178 26.087 26.7391 26.087H24.1304C23.0516 26.087 22.1738 25.2092 22.1738 24.1304V21.5217C22.1738 20.443 23.0516 19.5652 24.1304 19.5652H26.7391C27.8178 19.5652 28.6956 20.443 28.6956 21.5217V24.1304V24.1304Z" fill="white"/>
<path d="M16.3044 10.4348H13.6957C11.8983 10.4348 10.4348 11.8983 10.4348 13.6957V16.3044C10.4348 18.1017 11.8983 19.5652 13.6957 19.5652H16.3044C18.1017 19.5652 19.5652 18.1017 19.5652 16.3044V13.6957C19.5652 11.8983 18.1017 10.4348 16.3044 10.4348ZM18.2609 16.3044C18.2609 17.3831 17.3831 18.2609 16.3044 18.2609H13.6957C12.6169 18.2609 11.7391 17.3831 11.7391 16.3044V13.6957C11.7391 12.6169 12.6169 11.7391 13.6957 11.7391H16.3044C17.3831 11.7391 18.2609 12.6169 18.2609 13.6957V16.3044V16.3044Z" fill="white"/>
<path d="M4.56528 0C4.20528 0 3.91309 0.292194 3.91309 0.652194V3.26091C3.91309 3.62085 4.20528 3.91304 4.56528 3.91304C4.92528 3.91304 5.21747 3.62085 5.21747 3.26085V0.652194C5.21741 0.292194 4.92528 0 4.56528 0Z" fill="white"/>
<path d="M4.56528 10.4348C4.20528 10.4348 3.91309 10.727 3.91309 11.087V29.3478C3.91309 29.7078 4.20528 30 4.56528 30C4.92528 30 5.21741 29.7078 5.21741 29.3478V11.0869C5.21741 10.7269 4.92528 10.4348 4.56528 10.4348Z" fill="white"/>
<path d="M15 18.2609C14.64 18.2609 14.3478 18.5531 14.3478 18.9131V29.3478C14.3478 29.7078 14.64 30 15 30C15.36 30 15.6522 29.7078 15.6522 29.3478V18.913C15.6522 18.553 15.36 18.2609 15 18.2609Z" fill="white"/>
<path d="M15 0C14.64 0 14.3478 0.292194 14.3478 0.652194V11.087C14.3478 11.447 14.64 11.7392 15 11.7392C15.36 11.7392 15.6522 11.4469 15.6522 11.0869V0.652194C15.6522 0.292194 15.36 0 15 0Z" fill="white"/>
<path d="M25.4348 0C25.0748 0 24.7826 0.292194 24.7826 0.652194V18.9131C24.7826 19.2731 25.0748 19.5653 25.4348 19.5653C25.7948 19.5653 26.087 19.2731 26.087 18.9131V0.652194C26.087 0.292194 25.7948 0 25.4348 0Z" fill="white"/>
<path d="M25.4348 26.087C25.0748 26.087 24.7826 26.3792 24.7826 26.7392V29.3478C24.7826 29.7078 25.0748 30 25.4348 30C25.7948 30 26.087 29.7078 26.087 29.3478V26.7391C26.087 26.3791 25.7948 26.087 25.4348 26.087Z" fill="white"/>
</g>
<defs>
<clipPath id="clip0">
<rect width="30" height="30" fill="white"/>
</clipPath>
</defs>
</svg>
