<svg width="512" height="512" viewBox="0 0 512 512" fill="none" xmlns="http://www.w3.org/2000/svg">
<g clip-path="url(#clip0)">
<path d="M400 512H112C85.5467 512 64 490.475 64 464V240C64 213.525 85.5467 192 112 192H400C426.453 192 448 213.525 448 240V464C448 490.475 426.453 512 400 512ZM112 224C103.189 224 96 231.168 96 240V464C96 472.832 103.189 480 112 480H400C408.811 480 416 472.832 416 464V240C416 231.168 408.811 224 400 224H112Z" fill="white"/>
<path d="M368 224C359.168 224 352 216.832 352 208V128C352 75.072 308.928 32 256 32C203.072 32 160 75.072 160 128V208C160 216.832 152.832 224 144 224C135.168 224 128 216.832 128 208V128C128 57.408 185.408 0 256 0C326.592 0 384 57.408 384 128V208C384 216.832 376.832 224 368 224Z" fill="white"/>
</g>
<defs>
<clipPath id="clip0">
<rect width="512" height="512" fill="white"/>
</clipPath>
</defs>
</svg>
