<svg width="280" height="280" viewBox="0 0 280 280" fill="none" xmlns="http://www.w3.org/2000/svg">
<path fill-rule="evenodd" clip-rule="evenodd" d="M133.187 41.8781C94.5394 60.875 74.1807 106.273 87.012 149.989C101.325 198.753 151.515 226.958 199.116 212.987C220.429 206.731 237.609 193.081 248.799 175.535C240.027 210.521 213.962 239.853 177.488 250.559C122.139 266.805 63.7777 234.008 47.1347 177.306C30.4918 120.603 61.8694 61.4669 117.219 45.2212C122.527 43.6631 127.863 42.5562 133.187 41.8781Z" fill="#1E1E1D"/>
<path d="M132.492 76.8748L130.403 87.5708L139.93 92.8629L129.112 94.1813L127.023 104.877L122.426 94.9961L111.608 96.3146L119.585 88.8892L114.988 79.008L124.515 84.3001L132.492 76.8748Z" fill="#1E1E1D"/>
<path d="M151.154 135.546L157.198 144.614L167.691 141.669L160.933 150.219L166.977 159.288L156.757 155.504L149.999 164.054L150.441 153.165L140.221 149.38L150.713 146.435L151.154 135.546Z" fill="#1E1E1D"/>
<path d="M222.223 151.246L221.152 162.091L231.136 166.461L220.49 168.794L219.419 179.639L213.911 170.236L203.265 172.568L210.507 164.424L204.998 155.02L214.982 159.39L222.223 151.246Z" fill="#1E1E1D"/>
<path d="M205.215 90.5325L205.692 101.42L216.194 104.331L205.987 108.149L206.463 119.037L199.678 110.509L189.471 114.327L195.484 105.238L188.699 96.7101L199.201 99.6211L205.215 90.5325Z" fill="#1E1E1D"/>
</svg>
