<svg width="512" height="512" viewBox="0 0 512 512" fill="none" xmlns="http://www.w3.org/2000/svg">
<path d="M400 512H112C85.5469 512 64 490.477 64 464V240C64 213.523 85.5469 192 112 192H400C426.453 192 448 213.523 448 240V464C448 490.477 426.453 512 400 512ZM112 224C103.188 224 96 231.168 96 240V464C96 472.832 103.188 480 112 480H400C408.812 480 416 472.832 416 464V240C416 231.168 408.812 224 400 224H112Z" fill="white"/>
<path d="M144 224C135.168 224 128 216.832 128 208V128C128 57.4062 185.406 0 256 0C326.594 0 384 57.4062 384 128C384 136.832 376.832 144 368 144C359.168 144 352 136.832 352 128C352 75.0703 308.93 32 256 32C203.07 32 160 75.0703 160 128V208C160 216.832 152.832 224 144 224Z" fill="white"/>
</svg>
